<svg width="334" height="82" viewBox="0 0 334 82" fill="none" xmlns="http://www.w3.org/2000/svg">
<g filter="url(#filter0_d_576_4862)">
<g filter="url(#filter1_d_576_4862)">
<rect x="4" y="4" width="326" height="74" rx="20" fill="#2A3647" shape-rendering="crispEdges"/>
<path d="M47.9659 38H46.2045C46.1004 37.4934 45.9181 37.0483 45.6577 36.6648C45.402 36.2812 45.0895 35.9593 44.7202 35.6989C44.3556 35.4337 43.9508 35.2348 43.5057 35.1023C43.0606 34.9697 42.5966 34.9034 42.1136 34.9034C41.233 34.9034 40.4351 35.1259 39.7202 35.571C39.0099 36.0161 38.4441 36.6719 38.0227 37.5384C37.6061 38.4048 37.3977 39.4678 37.3977 40.7273C37.3977 41.9867 37.6061 43.0497 38.0227 43.9162C38.4441 44.7827 39.0099 45.4384 39.7202 45.8835C40.4351 46.3286 41.233 46.5511 42.1136 46.5511C42.5966 46.5511 43.0606 46.4848 43.5057 46.3523C43.9508 46.2197 44.3556 46.0232 44.7202 45.7628C45.0895 45.4976 45.402 45.1733 45.6577 44.7898C45.9181 44.4015 46.1004 43.9564 46.2045 43.4545H47.9659C47.8333 44.1979 47.5919 44.8632 47.2415 45.4503C46.8911 46.0374 46.4555 46.5369 45.9347 46.9489C45.4138 47.3561 44.8291 47.6662 44.1804 47.8793C43.5365 48.0923 42.8475 48.1989 42.1136 48.1989C40.8731 48.1989 39.7699 47.8958 38.804 47.2898C37.8381 46.6837 37.0781 45.822 36.5241 44.7045C35.9702 43.5871 35.6932 42.2614 35.6932 40.7273C35.6932 39.1932 35.9702 37.8674 36.5241 36.75C37.0781 35.6326 37.8381 34.7708 38.804 34.1648C39.7699 33.5587 40.8731 33.2557 42.1136 33.2557C42.8475 33.2557 43.5365 33.3622 44.1804 33.5753C44.8291 33.7884 45.4138 34.1009 45.9347 34.5128C46.4555 34.92 46.8911 35.4171 47.2415 36.0043C47.5919 36.5866 47.8333 37.2519 47.9659 38ZM55.0167 48.2273C54.0318 48.2273 53.1677 47.9929 52.4244 47.5241C51.6857 47.0554 51.1081 46.3996 50.6914 45.5568C50.2795 44.714 50.0735 43.7292 50.0735 42.6023C50.0735 41.4659 50.2795 40.474 50.6914 39.6264C51.1081 38.7789 51.6857 38.1207 52.4244 37.652C53.1677 37.1832 54.0318 36.9489 55.0167 36.9489C56.0015 36.9489 56.8633 37.1832 57.6019 37.652C58.3453 38.1207 58.9229 38.7789 59.3349 39.6264C59.7515 40.474 59.9599 41.4659 59.9599 42.6023C59.9599 43.7292 59.7515 44.714 59.3349 45.5568C58.9229 46.3996 58.3453 47.0554 57.6019 47.5241C56.8633 47.9929 56.0015 48.2273 55.0167 48.2273ZM55.0167 46.7216C55.7648 46.7216 56.3803 46.5298 56.8633 46.1463C57.3462 45.7628 57.7037 45.2585 57.9357 44.6335C58.1677 44.0085 58.2837 43.3314 58.2837 42.6023C58.2837 41.8731 58.1677 41.1937 57.9357 40.5639C57.7037 39.9342 57.3462 39.4252 56.8633 39.0369C56.3803 38.6487 55.7648 38.4545 55.0167 38.4545C54.2686 38.4545 53.6531 38.6487 53.1701 39.0369C52.6871 39.4252 52.3297 39.9342 52.0977 40.5639C51.8656 41.1937 51.7496 41.8731 51.7496 42.6023C51.7496 43.3314 51.8656 44.0085 52.0977 44.6335C52.3297 45.2585 52.6871 45.7628 53.1701 46.1463C53.6531 46.5298 54.2686 46.7216 55.0167 46.7216ZM64.1946 41.4375V48H62.5185V37.0909H64.1378V38.7955H64.2798C64.5355 38.2415 64.9238 37.7964 65.4446 37.4602C65.9654 37.1193 66.6378 36.9489 67.4616 36.9489C68.2003 36.9489 68.8466 37.1004 69.4006 37.4034C69.9545 37.7017 70.3854 38.1562 70.6932 38.767C71.0009 39.3731 71.1548 40.1402 71.1548 41.0682V48H69.4787V41.1818C69.4787 40.3248 69.2562 39.6572 68.8111 39.179C68.366 38.696 67.7552 38.4545 66.9787 38.4545C66.4437 38.4545 65.9654 38.5705 65.544 38.8026C65.1274 39.0346 64.7983 39.3731 64.5568 39.8182C64.3153 40.2633 64.1946 40.803 64.1946 41.4375ZM78.962 37.0909V38.5114H73.3086V37.0909H78.962ZM74.9563 34.4773H76.6325V44.875C76.6325 45.3485 76.7011 45.7036 76.8384 45.9403C76.9805 46.1723 77.1604 46.3286 77.3782 46.4091C77.6007 46.4848 77.8351 46.5227 78.0813 46.5227C78.266 46.5227 78.4175 46.5133 78.5359 46.4943C78.6542 46.4706 78.7489 46.4517 78.82 46.4375L79.1609 47.9432C79.0472 47.9858 78.8886 48.0284 78.685 48.071C78.4814 48.1184 78.2234 48.142 77.9109 48.142C77.4374 48.142 76.9734 48.0402 76.5188 47.8366C76.069 47.633 75.695 47.3229 75.3967 46.9062C75.1031 46.4896 74.9563 45.964 74.9563 45.3295V34.4773ZM84.6935 48.2557C84.0022 48.2557 83.3749 48.1255 82.8114 47.8651C82.248 47.5999 81.8005 47.2188 81.4691 46.7216C81.1377 46.2197 80.9719 45.6136 80.9719 44.9034C80.9719 44.2784 81.0951 43.7718 81.3413 43.3835C81.5875 42.9905 81.9165 42.6828 82.3285 42.4602C82.7404 42.2377 83.195 42.072 83.6921 41.9631C84.194 41.8494 84.6983 41.7595 85.2049 41.6932C85.8678 41.608 86.4052 41.544 86.8171 41.5014C87.2338 41.4541 87.5368 41.3759 87.7262 41.267C87.9203 41.1581 88.0174 40.9687 88.0174 40.6989V40.642C88.0174 39.9413 87.8256 39.3968 87.4421 39.0085C87.0633 38.6203 86.488 38.4261 85.7163 38.4261C84.9161 38.4261 84.2887 38.6013 83.8342 38.9517C83.3796 39.3021 83.06 39.6761 82.8754 40.0739L81.2844 39.5057C81.5685 38.8428 81.9473 38.3267 82.4208 37.9574C82.899 37.5833 83.4199 37.3229 83.9833 37.1761C84.5515 37.0246 85.1102 36.9489 85.6594 36.9489C86.0098 36.9489 86.4123 36.9915 86.8668 37.0767C87.3261 37.1572 87.7688 37.3253 88.195 37.581C88.6258 37.8366 88.9833 38.2225 89.2674 38.7386C89.5515 39.2547 89.6935 39.946 89.6935 40.8125V48H88.0174V46.5227H87.9322C87.8185 46.7595 87.6291 47.0128 87.364 47.2827C87.0988 47.5526 86.7461 47.7822 86.3058 47.9716C85.8654 48.161 85.328 48.2557 84.6935 48.2557ZM84.9492 46.75C85.6121 46.75 86.1708 46.6198 86.6254 46.3594C87.0846 46.099 87.4303 45.7628 87.6623 45.3509C87.899 44.9389 88.0174 44.5057 88.0174 44.0511V42.517C87.9464 42.6023 87.7901 42.6804 87.5487 42.7514C87.3119 42.8177 87.0373 42.8769 86.7248 42.929C86.417 42.9763 86.1164 43.0189 85.8228 43.0568C85.534 43.09 85.2996 43.1184 85.1197 43.142C84.6841 43.1989 84.2769 43.2912 83.8981 43.419C83.524 43.5421 83.221 43.7292 82.989 43.9801C82.7617 44.2263 82.6481 44.5625 82.6481 44.9886C82.6481 45.571 82.8635 46.0114 83.2944 46.3097C83.73 46.6032 84.2816 46.75 84.9492 46.75ZM97.1847 48.2273C96.1619 48.2273 95.2813 47.9858 94.5426 47.5028C93.804 47.0199 93.2358 46.3546 92.8381 45.5071C92.4403 44.6596 92.2415 43.6913 92.2415 42.6023C92.2415 41.4943 92.4451 40.5166 92.8523 39.669C93.2642 38.8168 93.8371 38.1515 94.571 37.6733C95.3097 37.1903 96.1714 36.9489 97.1562 36.9489C97.9233 36.9489 98.6146 37.0909 99.2301 37.375C99.8456 37.6591 100.35 38.0568 100.743 38.5682C101.136 39.0795 101.38 39.6761 101.474 40.358H99.7983C99.6705 39.8608 99.3864 39.4205 98.946 39.0369C98.5104 38.6487 97.9233 38.4545 97.1847 38.4545C96.5313 38.4545 95.9583 38.625 95.4659 38.9659C94.9782 39.3021 94.5971 39.7779 94.3224 40.3935C94.0526 41.0043 93.9176 41.7216 93.9176 42.5455C93.9176 43.3883 94.0502 44.1222 94.3153 44.7472C94.5852 45.3722 94.964 45.8575 95.4517 46.2031C95.9441 46.5488 96.5218 46.7216 97.1847 46.7216C97.6203 46.7216 98.0156 46.6458 98.3707 46.4943C98.7259 46.3428 99.0265 46.125 99.2727 45.8409C99.5189 45.5568 99.6941 45.2159 99.7983 44.8182H101.474C101.38 45.4621 101.145 46.0421 100.771 46.5582C100.402 47.0696 99.9119 47.4768 99.3011 47.7798C98.6951 48.0781 97.9896 48.2273 97.1847 48.2273ZM108.669 37.0909V38.5114H103.016V37.0909H108.669ZM104.663 34.4773H106.339V44.875C106.339 45.3485 106.408 45.7036 106.545 45.9403C106.688 46.1723 106.867 46.3286 107.085 46.4091C107.308 46.4848 107.542 46.5227 107.788 46.5227C107.973 46.5227 108.125 46.5133 108.243 46.4943C108.361 46.4706 108.456 46.4517 108.527 46.4375L108.868 47.9432C108.754 47.9858 108.596 48.0284 108.392 48.071C108.188 48.1184 107.93 48.142 107.618 48.142C107.144 48.142 106.68 48.0402 106.226 47.8366C105.776 47.633 105.402 47.3229 105.104 46.9062C104.81 46.4896 104.663 45.964 104.663 45.3295V34.4773ZM124.543 39.5341L123.037 39.9602C122.942 39.7093 122.803 39.4654 122.618 39.2287C122.438 38.9872 122.192 38.7884 121.879 38.6321C121.567 38.4759 121.167 38.3977 120.679 38.3977C120.011 38.3977 119.455 38.5516 119.01 38.8594C118.57 39.1624 118.349 39.5483 118.349 40.017C118.349 40.4337 118.501 40.7628 118.804 41.0043C119.107 41.2457 119.58 41.447 120.224 41.608L121.844 42.0057C122.819 42.2424 123.546 42.6046 124.024 43.0923C124.502 43.5753 124.741 44.1979 124.741 44.9602C124.741 45.5852 124.562 46.1439 124.202 46.6364C123.847 47.1288 123.349 47.517 122.71 47.8011C122.071 48.0852 121.328 48.2273 120.48 48.2273C119.367 48.2273 118.446 47.9858 117.717 47.5028C116.988 47.0199 116.527 46.3144 116.332 45.3864L117.923 44.9886C118.075 45.5758 118.361 46.0161 118.783 46.3097C119.209 46.6032 119.765 46.75 120.452 46.75C121.233 46.75 121.853 46.5843 122.312 46.2528C122.777 45.9167 123.009 45.5142 123.009 45.0455C123.009 44.6667 122.876 44.3494 122.611 44.0938C122.346 43.8333 121.938 43.6392 121.389 43.5114L119.571 43.0852C118.572 42.8485 117.838 42.4815 117.369 41.9844C116.905 41.4825 116.673 40.8551 116.673 40.1023C116.673 39.4867 116.846 38.9422 117.192 38.4688C117.542 37.9953 118.018 37.6236 118.619 37.3537C119.225 37.0838 119.912 36.9489 120.679 36.9489C121.759 36.9489 122.606 37.1856 123.222 37.6591C123.842 38.1326 124.282 38.7576 124.543 39.5341ZM134.14 43.5398V37.0909H135.816V48H134.14V46.1534H134.026C133.77 46.7074 133.373 47.1785 132.833 47.5668C132.293 47.9503 131.611 48.142 130.787 48.142C130.105 48.142 129.499 47.9929 128.969 47.6946C128.439 47.3916 128.022 46.937 127.719 46.331C127.416 45.7202 127.265 44.9508 127.265 44.0227V37.0909H128.941V43.9091C128.941 44.7045 129.163 45.339 129.608 45.8125C130.058 46.286 130.631 46.5227 131.327 46.5227C131.744 46.5227 132.167 46.4162 132.598 46.2031C133.034 45.9901 133.399 45.6634 133.692 45.223C133.99 44.7827 134.14 44.2216 134.14 43.5398ZM143.317 48.2273C142.295 48.2273 141.414 47.9858 140.675 47.5028C139.937 47.0199 139.369 46.3546 138.971 45.5071C138.573 44.6596 138.374 43.6913 138.374 42.6023C138.374 41.4943 138.578 40.5166 138.985 39.669C139.397 38.8168 139.97 38.1515 140.704 37.6733C141.442 37.1903 142.304 36.9489 143.289 36.9489C144.056 36.9489 144.747 37.0909 145.363 37.375C145.978 37.6591 146.483 38.0568 146.876 38.5682C147.269 39.0795 147.513 39.6761 147.607 40.358H145.931C145.803 39.8608 145.519 39.4205 145.079 39.0369C144.643 38.6487 144.056 38.4545 143.317 38.4545C142.664 38.4545 142.091 38.625 141.599 38.9659C141.111 39.3021 140.73 39.7779 140.455 40.3935C140.185 41.0043 140.05 41.7216 140.05 42.5455C140.05 43.3883 140.183 44.1222 140.448 44.7472C140.718 45.3722 141.097 45.8575 141.585 46.2031C142.077 46.5488 142.655 46.7216 143.317 46.7216C143.753 46.7216 144.148 46.6458 144.504 46.4943C144.859 46.3428 145.159 46.125 145.406 45.8409C145.652 45.5568 145.827 45.2159 145.931 44.8182H147.607C147.513 45.4621 147.278 46.0421 146.904 46.5582C146.535 47.0696 146.045 47.4768 145.434 47.7798C144.828 48.0781 144.122 48.2273 143.317 48.2273ZM154.489 48.2273C153.467 48.2273 152.586 47.9858 151.847 47.5028C151.109 47.0199 150.54 46.3546 150.143 45.5071C149.745 44.6596 149.546 43.6913 149.546 42.6023C149.546 41.4943 149.75 40.5166 150.157 39.669C150.569 38.8168 151.142 38.1515 151.876 37.6733C152.614 37.1903 153.476 36.9489 154.461 36.9489C155.228 36.9489 155.919 37.0909 156.535 37.375C157.15 37.6591 157.655 38.0568 158.048 38.5682C158.441 39.0795 158.684 39.6761 158.779 40.358H157.103C156.975 39.8608 156.691 39.4205 156.251 39.0369C155.815 38.6487 155.228 38.4545 154.489 38.4545C153.836 38.4545 153.263 38.625 152.771 38.9659C152.283 39.3021 151.902 39.7779 151.627 40.3935C151.357 41.0043 151.222 41.7216 151.222 42.5455C151.222 43.3883 151.355 44.1222 151.62 44.7472C151.89 45.3722 152.269 45.8575 152.756 46.2031C153.249 46.5488 153.826 46.7216 154.489 46.7216C154.925 46.7216 155.32 46.6458 155.675 46.4943C156.031 46.3428 156.331 46.125 156.577 45.8409C156.824 45.5568 156.999 45.2159 157.103 44.8182H158.779C158.684 45.4621 158.45 46.0421 158.076 46.5582C157.707 47.0696 157.217 47.4768 156.606 47.7798C156 48.0781 155.294 48.2273 154.489 48.2273ZM165.803 48.2273C164.752 48.2273 163.845 47.9953 163.083 47.5312C162.326 47.0625 161.741 46.4091 161.329 45.571C160.922 44.7282 160.718 43.7481 160.718 42.6307C160.718 41.5133 160.922 40.5284 161.329 39.6761C161.741 38.8191 162.314 38.1515 163.048 37.6733C163.786 37.1903 164.648 36.9489 165.633 36.9489C166.201 36.9489 166.762 37.0436 167.316 37.233C167.87 37.4223 168.374 37.7301 168.829 38.1562C169.283 38.5777 169.646 39.1364 169.915 39.8324C170.185 40.5284 170.32 41.3854 170.32 42.4034V43.1136H161.911V41.6648H168.616C168.616 41.0492 168.493 40.5 168.246 40.017C168.005 39.5341 167.659 39.1529 167.21 38.8736C166.764 38.5942 166.239 38.4545 165.633 38.4545C164.965 38.4545 164.388 38.6203 163.9 38.9517C163.417 39.2784 163.045 39.7045 162.785 40.2301C162.524 40.7557 162.394 41.3191 162.394 41.9205V42.8864C162.394 43.7102 162.536 44.4086 162.82 44.9815C163.109 45.5497 163.509 45.983 164.021 46.2812C164.532 46.5748 165.126 46.7216 165.803 46.7216C166.244 46.7216 166.641 46.66 166.996 46.5369C167.356 46.4091 167.666 46.2197 167.927 45.9688C168.187 45.7131 168.388 45.3958 168.531 45.017L170.15 45.4716C169.979 46.0208 169.693 46.5038 169.29 46.9205C168.888 47.3324 168.391 47.6544 167.799 47.8864C167.207 48.1136 166.542 48.2273 165.803 48.2273ZM180.597 39.5341L179.092 39.9602C178.997 39.7093 178.857 39.4654 178.673 39.2287C178.493 38.9872 178.246 38.7884 177.934 38.6321C177.621 38.4759 177.221 38.3977 176.734 38.3977C176.066 38.3977 175.51 38.5516 175.065 38.8594C174.624 39.1624 174.404 39.5483 174.404 40.017C174.404 40.4337 174.556 40.7628 174.859 41.0043C175.162 41.2457 175.635 41.447 176.279 41.608L177.898 42.0057C178.874 42.2424 179.601 42.6046 180.079 43.0923C180.557 43.5753 180.796 44.1979 180.796 44.9602C180.796 45.5852 180.616 46.1439 180.256 46.6364C179.901 47.1288 179.404 47.517 178.765 47.8011C178.126 48.0852 177.382 48.2273 176.535 48.2273C175.422 48.2273 174.501 47.9858 173.772 47.5028C173.043 47.0199 172.581 46.3144 172.387 45.3864L173.978 44.9886C174.129 45.5758 174.416 46.0161 174.837 46.3097C175.263 46.6032 175.82 46.75 176.506 46.75C177.288 46.75 177.908 46.5843 178.367 46.2528C178.831 45.9167 179.063 45.5142 179.063 45.0455C179.063 44.6667 178.931 44.3494 178.665 44.0938C178.4 43.8333 177.993 43.6392 177.444 43.5114L175.626 43.0852C174.627 42.8485 173.893 42.4815 173.424 41.9844C172.96 41.4825 172.728 40.8551 172.728 40.1023C172.728 39.4867 172.901 38.9422 173.246 38.4688C173.597 37.9953 174.073 37.6236 174.674 37.3537C175.28 37.0838 175.967 36.9489 176.734 36.9489C177.813 36.9489 178.661 37.1856 179.276 37.6591C179.897 38.1326 180.337 38.7576 180.597 39.5341ZM188.177 37.0909V38.5114H182.297V37.0909H188.177ZM184.058 48V35.5852C184.058 34.9602 184.205 34.4394 184.498 34.0227C184.792 33.6061 185.173 33.2936 185.642 33.0852C186.11 32.8769 186.605 32.7727 187.126 32.7727C187.538 32.7727 187.874 32.8059 188.135 32.8722C188.395 32.9384 188.589 33 188.717 33.0568L188.234 34.5057C188.149 34.4773 188.03 34.4418 187.879 34.3991C187.732 34.3565 187.538 34.3352 187.297 34.3352C186.743 34.3352 186.342 34.4749 186.096 34.7543C185.855 35.0336 185.734 35.4432 185.734 35.983V48H184.058ZM197.401 43.5398V37.0909H199.077V48H197.401V46.1534H197.288C197.032 46.7074 196.634 47.1785 196.094 47.5668C195.555 47.9503 194.873 48.142 194.049 48.142C193.367 48.142 192.761 47.9929 192.231 47.6946C191.701 47.3916 191.284 46.937 190.981 46.331C190.678 45.7202 190.526 44.9508 190.526 44.0227V37.0909H192.202V43.9091C192.202 44.7045 192.425 45.339 192.87 45.8125C193.32 46.286 193.893 46.5227 194.589 46.5227C195.005 46.5227 195.429 46.4162 195.86 46.2031C196.296 45.9901 196.66 45.6634 196.954 45.223C197.252 44.7827 197.401 44.2216 197.401 43.5398ZM203.824 33.4545V48H202.147V33.4545H203.824ZM208.57 33.4545V48H206.893V33.4545H208.57ZM212.719 52.0909C212.435 52.0909 212.182 52.0672 211.959 52.0199C211.737 51.9773 211.583 51.9347 211.498 51.892L211.924 50.4148C212.331 50.5189 212.691 50.5568 213.003 50.5284C213.316 50.5 213.593 50.3603 213.834 50.1094C214.08 49.8632 214.305 49.4631 214.509 48.9091L214.821 48.0568L210.787 37.0909H212.605L215.617 45.7841H215.73L218.742 37.0909H220.56L215.929 49.5909C215.721 50.1544 215.463 50.6207 215.155 50.9901C214.847 51.3641 214.49 51.6411 214.083 51.821C213.68 52.0009 213.226 52.0909 212.719 52.0909ZM232.829 48.2273C231.806 48.2273 230.926 47.9858 230.187 47.5028C229.449 47.0199 228.88 46.3546 228.483 45.5071C228.085 44.6596 227.886 43.6913 227.886 42.6023C227.886 41.4943 228.09 40.5166 228.497 39.669C228.909 38.8168 229.482 38.1515 230.216 37.6733C230.954 37.1903 231.816 36.9489 232.801 36.9489C233.568 36.9489 234.259 37.0909 234.875 37.375C235.49 37.6591 235.994 38.0568 236.387 38.5682C236.78 39.0795 237.024 39.6761 237.119 40.358H235.443C235.315 39.8608 235.031 39.4205 234.591 39.0369C234.155 38.6487 233.568 38.4545 232.829 38.4545C232.176 38.4545 231.603 38.625 231.11 38.9659C230.623 39.3021 230.242 39.7779 229.967 40.3935C229.697 41.0043 229.562 41.7216 229.562 42.5455C229.562 43.3883 229.695 44.1222 229.96 44.7472C230.23 45.3722 230.609 45.8575 231.096 46.2031C231.589 46.5488 232.166 46.7216 232.829 46.7216C233.265 46.7216 233.66 46.6458 234.015 46.4943C234.37 46.3428 234.671 46.125 234.917 45.8409C235.163 45.5568 235.339 45.2159 235.443 44.8182H237.119C237.024 45.4621 236.79 46.0421 236.416 46.5582C236.047 47.0696 235.556 47.4768 234.946 47.7798C234.34 48.0781 233.634 48.2273 232.829 48.2273ZM239.569 48V37.0909H241.189V38.7386H241.302C241.501 38.1989 241.861 37.7609 242.382 37.4247C242.903 37.0885 243.49 36.9205 244.143 36.9205C244.266 36.9205 244.42 36.9228 244.605 36.9276C244.789 36.9323 244.929 36.9394 245.024 36.9489V38.6534C244.967 38.6392 244.837 38.6179 244.633 38.5895C244.434 38.5563 244.224 38.5398 244.001 38.5398C243.471 38.5398 242.997 38.651 242.581 38.8736C242.169 39.0914 241.842 39.3944 241.6 39.7827C241.364 40.1662 241.245 40.6042 241.245 41.0966V48H239.569ZM251.252 48.2273C250.201 48.2273 249.295 47.9953 248.532 47.5312C247.775 47.0625 247.19 46.4091 246.778 45.571C246.371 44.7282 246.167 43.7481 246.167 42.6307C246.167 41.5133 246.371 40.5284 246.778 39.6761C247.19 38.8191 247.763 38.1515 248.497 37.6733C249.235 37.1903 250.097 36.9489 251.082 36.9489C251.65 36.9489 252.211 37.0436 252.765 37.233C253.319 37.4223 253.824 37.7301 254.278 38.1562C254.733 38.5777 255.095 39.1364 255.365 39.8324C255.635 40.5284 255.77 41.3854 255.77 42.4034V43.1136H247.36V41.6648H254.065C254.065 41.0492 253.942 40.5 253.696 40.017C253.454 39.5341 253.109 39.1529 252.659 38.8736C252.214 38.5942 251.688 38.4545 251.082 38.4545C250.414 38.4545 249.837 38.6203 249.349 38.9517C248.866 39.2784 248.494 39.7045 248.234 40.2301C247.974 40.7557 247.843 41.3191 247.843 41.9205V42.8864C247.843 43.7102 247.985 44.4086 248.27 44.9815C248.558 45.5497 248.958 45.983 249.47 46.2812C249.981 46.5748 250.575 46.7216 251.252 46.7216C251.693 46.7216 252.091 46.66 252.446 46.5369C252.806 46.4091 253.116 46.2197 253.376 45.9688C253.636 45.7131 253.838 45.3958 253.98 45.017L255.599 45.4716C255.429 46.0208 255.142 46.5038 254.74 46.9205C254.337 47.3324 253.84 47.6544 253.248 47.8864C252.656 48.1136 251.991 48.2273 251.252 48.2273ZM261.529 48.2557C260.838 48.2557 260.211 48.1255 259.647 47.8651C259.084 47.5999 258.636 47.2188 258.305 46.7216C257.974 46.2197 257.808 45.6136 257.808 44.9034C257.808 44.2784 257.931 43.7718 258.177 43.3835C258.423 42.9905 258.752 42.6828 259.164 42.4602C259.576 42.2377 260.031 42.072 260.528 41.9631C261.03 41.8494 261.534 41.7595 262.041 41.6932C262.704 41.608 263.241 41.544 263.653 41.5014C264.07 41.4541 264.373 41.3759 264.562 41.267C264.756 41.1581 264.853 40.9687 264.853 40.6989V40.642C264.853 39.9413 264.662 39.3968 264.278 39.0085C263.899 38.6203 263.324 38.4261 262.552 38.4261C261.752 38.4261 261.125 38.6013 260.67 38.9517C260.216 39.3021 259.896 39.6761 259.711 40.0739L258.12 39.5057C258.404 38.8428 258.783 38.3267 259.257 37.9574C259.735 37.5833 260.256 37.3229 260.819 37.1761C261.387 37.0246 261.946 36.9489 262.495 36.9489C262.846 36.9489 263.248 36.9915 263.703 37.0767C264.162 37.1572 264.605 37.3253 265.031 37.581C265.462 37.8366 265.819 38.2225 266.103 38.7386C266.387 39.2547 266.529 39.946 266.529 40.8125V48H264.853V46.5227H264.768C264.654 46.7595 264.465 47.0128 264.2 47.2827C263.935 47.5526 263.582 47.7822 263.142 47.9716C262.701 48.161 262.164 48.2557 261.529 48.2557ZM261.785 46.75C262.448 46.75 263.007 46.6198 263.461 46.3594C263.921 46.099 264.266 45.7628 264.498 45.3509C264.735 44.9389 264.853 44.5057 264.853 44.0511V42.517C264.782 42.6023 264.626 42.6804 264.385 42.7514C264.148 42.8177 263.873 42.8769 263.561 42.929C263.253 42.9763 262.952 43.0189 262.659 43.0568C262.37 43.09 262.136 43.1184 261.956 43.142C261.52 43.1989 261.113 43.2912 260.734 43.419C260.36 43.5421 260.057 43.7292 259.825 43.9801C259.598 44.2263 259.484 44.5625 259.484 44.9886C259.484 45.571 259.699 46.0114 260.13 46.3097C260.566 46.6032 261.118 46.75 261.785 46.75ZM274.333 37.0909V38.5114H268.68V37.0909H274.333ZM270.327 34.4773H272.004V44.875C272.004 45.3485 272.072 45.7036 272.21 45.9403C272.352 46.1723 272.531 46.3286 272.749 46.4091C272.972 46.4848 273.206 46.5227 273.452 46.5227C273.637 46.5227 273.789 46.5133 273.907 46.4943C274.025 46.4706 274.12 46.4517 274.191 46.4375L274.532 47.9432C274.418 47.9858 274.26 48.0284 274.056 48.071C273.853 48.1184 273.594 48.142 273.282 48.142C272.808 48.142 272.344 48.0402 271.89 47.8366C271.44 47.633 271.066 47.3229 270.768 46.9062C270.474 46.4896 270.327 45.964 270.327 45.3295V34.4773ZM281.311 48.2273C280.26 48.2273 279.353 47.9953 278.591 47.5312C277.833 47.0625 277.249 46.4091 276.837 45.571C276.429 44.7282 276.226 43.7481 276.226 42.6307C276.226 41.5133 276.429 40.5284 276.837 39.6761C277.249 38.8191 277.821 38.1515 278.555 37.6733C279.294 37.1903 280.156 36.9489 281.141 36.9489C281.709 36.9489 282.27 37.0436 282.824 37.233C283.378 37.4223 283.882 37.7301 284.337 38.1562C284.791 38.5777 285.153 39.1364 285.423 39.8324C285.693 40.5284 285.828 41.3854 285.828 42.4034V43.1136H277.419V41.6648H284.124C284.124 41.0492 284 40.5 283.754 40.017C283.513 39.5341 283.167 39.1529 282.717 38.8736C282.272 38.5942 281.747 38.4545 281.141 38.4545C280.473 38.4545 279.895 38.6203 279.408 38.9517C278.925 39.2784 278.553 39.7045 278.293 40.2301C278.032 40.7557 277.902 41.3191 277.902 41.9205V42.8864C277.902 43.7102 278.044 44.4086 278.328 44.9815C278.617 45.5497 279.017 45.983 279.528 46.2812C280.04 46.5748 280.634 46.7216 281.311 46.7216C281.751 46.7216 282.149 46.66 282.504 46.5369C282.864 46.4091 283.174 46.2197 283.435 45.9688C283.695 45.7131 283.896 45.3958 284.038 45.017L285.658 45.4716C285.487 46.0208 285.201 46.5038 284.798 46.9205C284.396 47.3324 283.899 47.6544 283.307 47.8864C282.715 48.1136 282.05 48.2273 281.311 48.2273ZM292.497 48.2273C291.588 48.2273 290.786 47.9976 290.089 47.5384C289.393 47.0743 288.849 46.4209 288.456 45.5781C288.063 44.7306 287.866 43.7292 287.866 42.5739C287.866 41.428 288.063 40.4337 288.456 39.5909C288.849 38.7481 289.396 38.0971 290.097 37.6378C290.797 37.1785 291.607 36.9489 292.526 36.9489C293.236 36.9489 293.797 37.0672 294.209 37.304C294.625 37.536 294.943 37.8011 295.161 38.0994C295.383 38.393 295.556 38.6345 295.679 38.8239H295.821V33.4545H297.497V48H295.878V46.3239H295.679C295.556 46.5227 295.381 46.7737 295.153 47.0767C294.926 47.375 294.602 47.6425 294.18 47.8793C293.759 48.1113 293.198 48.2273 292.497 48.2273ZM292.724 46.7216C293.397 46.7216 293.965 46.5464 294.429 46.196C294.893 45.8409 295.246 45.3509 295.487 44.7259C295.729 44.0961 295.849 43.3693 295.849 42.5455C295.849 41.7311 295.731 41.0185 295.494 40.4077C295.258 39.7921 294.907 39.3139 294.443 38.973C293.979 38.6274 293.406 38.4545 292.724 38.4545C292.014 38.4545 291.422 38.6368 290.949 39.0014C290.48 39.3613 290.127 39.8513 289.891 40.4716C289.659 41.0871 289.543 41.7784 289.543 42.5455C289.543 43.322 289.661 44.0275 289.898 44.6619C290.139 45.2917 290.494 45.7936 290.963 46.1676C291.437 46.5369 292.024 46.7216 292.724 46.7216Z" fill="white"/>
</g>
</g>
<defs>
<filter id="filter0_d_576_4862" x="0" y="0" width="334" height="82" filterUnits="userSpaceOnUse" color-interpolation-filters="sRGB">
<feFlood flood-opacity="0" result="BackgroundImageFix"/>
<feColorMatrix in="SourceAlpha" type="matrix" values="0 0 0 0 0 0 0 0 0 0 0 0 0 0 0 0 0 0 127 0" result="hardAlpha"/>
<feOffset/>
<feGaussianBlur stdDeviation="2"/>
<feColorMatrix type="matrix" values="0 0 0 0 0 0 0 0 0 0 0 0 0 0 0 0 0 0 0.1 0"/>
<feBlend mode="normal" in2="BackgroundImageFix" result="effect1_dropShadow_576_4862"/>
<feBlend mode="normal" in="SourceGraphic" in2="effect1_dropShadow_576_4862" result="shape"/>
</filter>
<filter id="filter1_d_576_4862" x="0" y="0" width="334" height="82" filterUnits="userSpaceOnUse" color-interpolation-filters="sRGB">
<feFlood flood-opacity="0" result="BackgroundImageFix"/>
<feColorMatrix in="SourceAlpha" type="matrix" values="0 0 0 0 0 0 0 0 0 0 0 0 0 0 0 0 0 0 127 0" result="hardAlpha"/>
<feOffset/>
<feGaussianBlur stdDeviation="2"/>
<feComposite in2="hardAlpha" operator="out"/>
<feColorMatrix type="matrix" values="0 0 0 0 0 0 0 0 0 0 0 0 0 0 0 0 0 0 0.15 0"/>
<feBlend mode="normal" in2="BackgroundImageFix" result="effect1_dropShadow_576_4862"/>
<feBlend mode="normal" in="SourceGraphic" in2="effect1_dropShadow_576_4862" result="shape"/>
</filter>
</defs>
</svg>
