<svg width="214" height="57" viewBox="0 0 214 57" fill="none" xmlns="http://www.w3.org/2000/svg">
<rect width="214" height="57" rx="10" fill="#2A3647"/>
<path d="M30.8029 26.0742H27.5366C27.4769 25.6516 27.3551 25.2763 27.1712 24.9482C26.9872 24.6151 26.7511 24.3317 26.4627 24.098C26.1744 23.8643 25.8413 23.6854 25.4634 23.5611C25.0906 23.4368 24.6854 23.3746 24.2479 23.3746C23.4574 23.3746 22.7688 23.571 22.1822 23.9638C21.5955 24.3516 21.1406 24.9183 20.8175 25.6641C20.4943 26.4048 20.3327 27.3047 20.3327 28.3636C20.3327 29.4524 20.4943 30.3672 20.8175 31.108C21.1456 31.8487 21.603 32.408 22.1896 32.7859C22.7763 33.1637 23.4549 33.3526 24.2255 33.3526C24.658 33.3526 25.0582 33.2955 25.4261 33.1811C25.799 33.0668 26.1296 32.9002 26.418 32.6815C26.7063 32.4577 26.945 32.1868 27.1339 31.8686C27.3278 31.5504 27.462 31.1875 27.5366 30.7798L30.8029 30.7947C30.7184 31.4957 30.5071 32.1719 30.169 32.8232C29.8359 33.4695 29.386 34.0487 28.8192 34.5607C28.2575 35.0678 27.5863 35.4705 26.8058 35.7688C26.0302 36.0621 25.1527 36.2088 24.1733 36.2088C22.8111 36.2088 21.593 35.9006 20.5192 35.2841C19.4503 34.6676 18.6051 33.7752 17.9837 32.6069C17.3672 31.4386 17.0589 30.0241 17.0589 28.3636C17.0589 26.6982 17.3722 25.2812 17.9986 24.1129C18.625 22.9446 19.4751 22.0547 20.549 21.4432C21.6229 20.8267 22.831 20.5185 24.1733 20.5185C25.0582 20.5185 25.8786 20.6428 26.6342 20.8913C27.3949 21.1399 28.0685 21.5028 28.6552 21.9801C29.2418 22.4524 29.7191 23.0316 30.087 23.7177C30.4599 24.4038 30.6985 25.1893 30.8029 26.0742ZM33.0588 36V24.5455H36.1387V26.544H36.258C36.4668 25.8331 36.8173 25.2962 37.3095 24.9332C37.8017 24.5653 38.3684 24.3814 39.0098 24.3814C39.1689 24.3814 39.3404 24.3913 39.5243 24.4112C39.7083 24.4311 39.8699 24.4585 40.0091 24.4933V27.3121C39.8599 27.2674 39.6536 27.2276 39.3901 27.1928C39.1266 27.158 38.8855 27.1406 38.6667 27.1406C38.1994 27.1406 37.7818 27.2425 37.4139 27.4464C37.051 27.6452 36.7626 27.9237 36.5488 28.2816C36.34 28.6396 36.2356 29.0522 36.2356 29.5195V36H33.0588ZM46.3385 36.2237C45.1602 36.2237 44.146 35.9851 43.2959 35.5078C42.4507 35.0256 41.7994 34.3445 41.3421 33.4645C40.8847 32.5795 40.656 31.533 40.656 30.3249C40.656 29.1467 40.8847 28.1126 41.3421 27.2227C41.7994 26.3327 42.4433 25.6392 43.2735 25.142C44.1088 24.6449 45.0882 24.3963 46.2117 24.3963C46.9674 24.3963 47.6709 24.5181 48.3222 24.7617C48.9784 25.0004 49.5502 25.3608 50.0374 25.843C50.5296 26.3253 50.9124 26.9318 51.1858 27.6626C51.4593 28.3885 51.596 29.2386 51.596 30.2131V31.0856H41.9237V29.1168H48.6056C48.6056 28.6594 48.5061 28.2543 48.3073 27.9013C48.1084 27.5483 47.8325 27.2724 47.4795 27.0735C47.1315 26.8697 46.7263 26.7678 46.2639 26.7678C45.7817 26.7678 45.3541 26.8796 44.9813 27.1033C44.6134 27.3221 44.325 27.6179 44.1162 27.9908C43.9074 28.3587 43.8005 28.7688 43.7955 29.2212V31.093C43.7955 31.6598 43.8999 32.1495 44.1088 32.5621C44.3225 32.9748 44.6233 33.293 45.0111 33.5167C45.3989 33.7404 45.8588 33.8523 46.3907 33.8523C46.7437 33.8523 47.0669 33.8026 47.3602 33.7031C47.6535 33.6037 47.9046 33.4545 48.1134 33.2557C48.3222 33.0568 48.4813 32.8132 48.5906 32.5249L51.5289 32.7188C51.3797 33.4247 51.074 34.0412 50.6116 34.5682C50.1542 35.0902 49.5626 35.4979 48.8367 35.7912C48.1159 36.0795 47.2831 36.2237 46.3385 36.2237ZM56.9355 36.2163C56.2046 36.2163 55.5534 36.0895 54.9816 35.8359C54.4099 35.5774 53.9575 35.1971 53.6244 34.695C53.2963 34.1879 53.1322 33.5565 53.1322 32.8008C53.1322 32.1644 53.249 31.63 53.4827 31.1974C53.7164 30.7649 54.0345 30.4169 54.4372 30.1534C54.8399 29.8899 55.2973 29.6911 55.8094 29.5568C56.3264 29.4226 56.8683 29.3281 57.4351 29.2734C58.1013 29.2038 58.6382 29.1392 59.0459 29.0795C59.4536 29.0149 59.7494 28.9205 59.9333 28.7962C60.1173 28.6719 60.2093 28.4879 60.2093 28.2443V28.1996C60.2093 27.7273 60.0601 27.3619 59.7618 27.1033C59.4685 26.8448 59.0509 26.7156 58.509 26.7156C57.9372 26.7156 57.4823 26.8423 57.1443 27.0959C56.8062 27.3445 56.5825 27.6577 56.4731 28.0355L53.5349 27.7969C53.684 27.1009 53.9774 26.4993 54.4149 25.9922C54.8524 25.4801 55.4166 25.0874 56.1077 24.8139C56.8037 24.5355 57.6091 24.3963 58.5239 24.3963C59.1602 24.3963 59.7693 24.4709 60.3509 24.62C60.9376 24.7692 61.4571 25.0004 61.9095 25.3136C62.3669 25.6268 62.7274 26.0295 62.9909 26.5217C63.2544 27.0089 63.3861 27.593 63.3861 28.2741V36H60.3733V34.4116H60.2838C60.0999 34.7695 59.8538 35.0852 59.5455 35.3587C59.2373 35.6271 58.8669 35.8384 58.4344 35.9925C58.0019 36.1417 57.5022 36.2163 56.9355 36.2163ZM57.8453 34.0238C58.3126 34.0238 58.7252 33.9318 59.0832 33.7479C59.4411 33.5589 59.722 33.3054 59.9259 32.9872C60.1297 32.669 60.2316 32.3086 60.2316 31.9059V30.6903C60.1322 30.755 59.9955 30.8146 59.8215 30.8693C59.6524 30.919 59.461 30.9663 59.2472 31.011C59.0335 31.0508 58.8197 31.0881 58.6059 31.1229C58.3921 31.1527 58.1982 31.18 58.0242 31.2049C57.6514 31.2596 57.3257 31.3466 57.0473 31.4659C56.7689 31.5852 56.5526 31.7468 56.3985 31.9506C56.2444 32.1495 56.1673 32.3981 56.1673 32.6964C56.1673 33.1289 56.324 33.4595 56.6372 33.6882C56.9553 33.9119 57.358 34.0238 57.8453 34.0238ZM71.9434 24.5455V26.9318H65.0454V24.5455H71.9434ZM66.6114 21.8011H69.7883V32.4801C69.7883 32.7734 69.833 33.0021 69.9225 33.1662C70.012 33.3253 70.1363 33.4371 70.2954 33.5018C70.4594 33.5664 70.6483 33.5987 70.8621 33.5987C71.0113 33.5987 71.1604 33.5863 71.3096 33.5614C71.4587 33.5316 71.5731 33.5092 71.6526 33.4943L72.1523 35.8583C71.9932 35.908 71.7694 35.9652 71.4811 36.0298C71.1927 36.0994 70.8422 36.1417 70.4296 36.1566C69.664 36.1864 68.9928 36.0845 68.4161 35.8509C67.8444 35.6172 67.3994 35.2543 67.0812 34.7621C66.7631 34.2699 66.6064 33.6484 66.6114 32.8977V21.8011ZM79.11 36.2237C77.9317 36.2237 76.9175 35.9851 76.0674 35.5078C75.2222 35.0256 74.5709 34.3445 74.1135 33.4645C73.6562 32.5795 73.4275 31.533 73.4275 30.3249C73.4275 29.1467 73.6562 28.1126 74.1135 27.2227C74.5709 26.3327 75.2148 25.6392 76.045 25.142C76.8802 24.6449 77.8596 24.3963 78.9832 24.3963C79.7389 24.3963 80.4424 24.5181 81.0937 24.7617C81.7499 25.0004 82.3216 25.3608 82.8089 25.843C83.301 26.3253 83.6839 26.9318 83.9573 27.6626C84.2307 28.3885 84.3675 29.2386 84.3675 30.2131V31.0856H74.6952V29.1168H81.377C81.377 28.6594 81.2776 28.2543 81.0787 27.9013C80.8799 27.5483 80.604 27.2724 80.251 27.0735C79.903 26.8697 79.4978 26.7678 79.0354 26.7678C78.5532 26.7678 78.1256 26.8796 77.7528 27.1033C77.3849 27.3221 77.0965 27.6179 76.8877 27.9908C76.6789 28.3587 76.572 28.7688 76.567 29.2212V31.093C76.567 31.6598 76.6714 32.1495 76.8802 32.5621C77.094 32.9748 77.3948 33.293 77.7826 33.5167C78.1704 33.7404 78.6302 33.8523 79.1622 33.8523C79.5152 33.8523 79.8383 33.8026 80.1317 33.7031C80.425 33.6037 80.676 33.4545 80.8849 33.2557C81.0937 33.0568 81.2528 32.8132 81.3621 32.5249L84.3003 32.7188C84.1512 33.4247 83.8454 34.0412 83.3831 34.5682C82.9257 35.0902 82.3341 35.4979 81.6082 35.7912C80.8873 36.0795 80.0546 36.2237 79.11 36.2237ZM96.4764 36.2237C95.3031 36.2237 94.2939 35.9751 93.4487 35.478C92.6085 34.9759 91.9622 34.2798 91.5098 33.3899C91.0623 32.5 90.8386 31.4759 90.8386 30.3175C90.8386 29.1442 91.0648 28.1151 91.5172 27.2301C91.9746 26.3402 92.6234 25.6467 93.4636 25.1495C94.3038 24.6474 95.3031 24.3963 96.4615 24.3963C97.4608 24.3963 98.3358 24.5778 99.0865 24.9407C99.8372 25.3036 100.431 25.8132 100.869 26.4695C101.306 27.1257 101.547 27.8963 101.592 28.7812H98.5943C98.5098 28.2095 98.286 27.7496 97.9231 27.4016C97.5652 27.0487 97.0953 26.8722 96.5137 26.8722C96.0215 26.8722 95.5914 27.0064 95.2235 27.2749C94.8606 27.5384 94.5772 27.9237 94.3734 28.4308C94.1696 28.9379 94.0676 29.5518 94.0676 30.2727C94.0676 31.0036 94.1671 31.625 94.3659 32.1371C94.5698 32.6491 94.8556 33.0394 95.2235 33.3079C95.5914 33.5763 96.0215 33.7106 96.5137 33.7106C96.8766 33.7106 97.2022 33.636 97.4906 33.4869C97.7839 33.3377 98.025 33.1214 98.214 32.8381C98.4078 32.5497 98.5346 32.2042 98.5943 31.8015H101.592C101.542 32.6765 101.304 33.4471 100.876 34.1133C100.454 34.7745 99.8695 35.2915 99.1238 35.6644C98.378 36.0373 97.4956 36.2237 96.4764 36.2237ZM108.802 36.2237C107.643 36.2237 106.641 35.9776 105.796 35.4854C104.956 34.9883 104.307 34.2972 103.85 33.4123C103.392 32.5224 103.164 31.4908 103.164 30.3175C103.164 29.1342 103.392 28.1001 103.85 27.2152C104.307 26.3253 104.956 25.6342 105.796 25.142C106.641 24.6449 107.643 24.3963 108.802 24.3963C109.96 24.3963 110.959 24.6449 111.799 25.142C112.645 25.6342 113.296 26.3253 113.753 27.2152C114.211 28.1001 114.439 29.1342 114.439 30.3175C114.439 31.4908 114.211 32.5224 113.753 33.4123C113.296 34.2972 112.645 34.9883 111.799 35.4854C110.959 35.9776 109.96 36.2237 108.802 36.2237ZM108.816 33.7628C109.343 33.7628 109.783 33.6136 110.136 33.3153C110.489 33.0121 110.755 32.5994 110.934 32.0774C111.118 31.5554 111.21 30.9613 111.21 30.2951C111.21 29.6289 111.118 29.0348 110.934 28.5128C110.755 27.9908 110.489 27.5781 110.136 27.2749C109.783 26.9716 109.343 26.82 108.816 26.82C108.285 26.82 107.837 26.9716 107.474 27.2749C107.116 27.5781 106.845 27.9908 106.661 28.5128C106.482 29.0348 106.393 29.6289 106.393 30.2951C106.393 30.9613 106.482 31.5554 106.661 32.0774C106.845 32.5994 107.116 33.0121 107.474 33.3153C107.837 33.6136 108.285 33.7628 108.816 33.7628ZM119.682 29.3778V36H116.505V24.5455H119.533V26.5664H119.667C119.921 25.9002 120.346 25.3732 120.942 24.9854C121.539 24.5927 122.262 24.3963 123.112 24.3963C123.908 24.3963 124.601 24.5703 125.193 24.9183C125.785 25.2663 126.244 25.7635 126.573 26.4098C126.901 27.0511 127.065 27.8168 127.065 28.7067V36H123.888V29.2734C123.893 28.5724 123.714 28.0256 123.351 27.6328C122.988 27.2351 122.488 27.0362 121.852 27.0362C121.424 27.0362 121.047 27.1282 120.718 27.3121C120.395 27.4961 120.142 27.7646 119.958 28.1175C119.779 28.4656 119.687 28.8857 119.682 29.3778ZM135.661 24.5455V26.9318H128.763V24.5455H135.661ZM130.329 21.8011H133.506V32.4801C133.506 32.7734 133.551 33.0021 133.64 33.1662C133.73 33.3253 133.854 33.4371 134.013 33.5018C134.177 33.5664 134.366 33.5987 134.58 33.5987C134.729 33.5987 134.878 33.5863 135.027 33.5614C135.176 33.5316 135.291 33.5092 135.37 33.4943L135.87 35.8583C135.711 35.908 135.487 35.9652 135.199 36.0298C134.911 36.0994 134.56 36.1417 134.147 36.1566C133.382 36.1864 132.711 36.0845 132.134 35.8509C131.562 35.6172 131.117 35.2543 130.799 34.7621C130.481 34.2699 130.324 33.6484 130.329 32.8977V21.8011ZM140.997 36.2163C140.266 36.2163 139.615 36.0895 139.043 35.8359C138.471 35.5774 138.019 35.1971 137.686 34.695C137.358 34.1879 137.194 33.5565 137.194 32.8008C137.194 32.1644 137.311 31.63 137.544 31.1974C137.778 30.7649 138.096 30.4169 138.499 30.1534C138.901 29.8899 139.359 29.6911 139.871 29.5568C140.388 29.4226 140.93 29.3281 141.497 29.2734C142.163 29.2038 142.7 29.1392 143.107 29.0795C143.515 29.0149 143.811 28.9205 143.995 28.7962C144.179 28.6719 144.271 28.4879 144.271 28.2443V28.1996C144.271 27.7273 144.122 27.3619 143.823 27.1033C143.53 26.8448 143.112 26.7156 142.57 26.7156C141.999 26.7156 141.544 26.8423 141.206 27.0959C140.868 27.3445 140.644 27.6577 140.535 28.0355L137.596 27.7969C137.746 27.1009 138.039 26.4993 138.476 25.9922C138.914 25.4801 139.478 25.0874 140.169 24.8139C140.865 24.5355 141.671 24.3963 142.585 24.3963C143.222 24.3963 143.831 24.4709 144.412 24.62C144.999 24.7692 145.519 25.0004 145.971 25.3136C146.428 25.6268 146.789 26.0295 147.052 26.5217C147.316 27.0089 147.448 27.593 147.448 28.2741V36H144.435V34.4116H144.345C144.161 34.7695 143.915 35.0852 143.607 35.3587C143.299 35.6271 142.928 35.8384 142.496 35.9925C142.063 36.1417 141.564 36.2163 140.997 36.2163ZM141.907 34.0238C142.374 34.0238 142.787 33.9318 143.145 33.7479C143.503 33.5589 143.784 33.3054 143.987 32.9872C144.191 32.669 144.293 32.3086 144.293 31.9059V30.6903C144.194 30.755 144.057 30.8146 143.883 30.8693C143.714 30.919 143.523 30.9663 143.309 31.011C143.095 31.0508 142.881 31.0881 142.667 31.1229C142.454 31.1527 142.26 31.18 142.086 31.2049C141.713 31.2596 141.387 31.3466 141.109 31.4659C140.83 31.5852 140.614 31.7468 140.46 31.9506C140.306 32.1495 140.229 32.3981 140.229 32.6964C140.229 33.1289 140.385 33.4595 140.699 33.6882C141.017 33.9119 141.42 34.0238 141.907 34.0238ZM155.088 36.2237C153.914 36.2237 152.905 35.9751 152.06 35.478C151.22 34.9759 150.574 34.2798 150.121 33.3899C149.674 32.5 149.45 31.4759 149.45 30.3175C149.45 29.1442 149.676 28.1151 150.129 27.2301C150.586 26.3402 151.235 25.6467 152.075 25.1495C152.915 24.6474 153.914 24.3963 155.073 24.3963C156.072 24.3963 156.947 24.5778 157.698 24.9407C158.449 25.3036 159.043 25.8132 159.48 26.4695C159.918 27.1257 160.159 27.8963 160.203 28.7812H157.206C157.121 28.2095 156.897 27.7496 156.534 27.4016C156.176 27.0487 155.707 26.8722 155.125 26.8722C154.633 26.8722 154.203 27.0064 153.835 27.2749C153.472 27.5384 153.189 27.9237 152.985 28.4308C152.781 28.9379 152.679 29.5518 152.679 30.2727C152.679 31.0036 152.778 31.625 152.977 32.1371C153.181 32.6491 153.467 33.0394 153.835 33.3079C154.203 33.5763 154.633 33.7106 155.125 33.7106C155.488 33.7106 155.814 33.636 156.102 33.4869C156.395 33.3377 156.636 33.1214 156.825 32.8381C157.019 32.5497 157.146 32.2042 157.206 31.8015H160.203C160.154 32.6765 159.915 33.4471 159.488 34.1133C159.065 34.7745 158.481 35.2915 157.735 35.6644C156.989 36.0373 156.107 36.2237 155.088 36.2237ZM168.33 24.5455V26.9318H161.432V24.5455H168.33ZM162.998 21.8011H166.175V32.4801C166.175 32.7734 166.22 33.0021 166.309 33.1662C166.399 33.3253 166.523 33.4371 166.682 33.5018C166.846 33.5664 167.035 33.5987 167.249 33.5987C167.398 33.5987 167.547 33.5863 167.696 33.5614C167.845 33.5316 167.96 33.5092 168.039 33.4943L168.539 35.8583C168.38 35.908 168.156 35.9652 167.868 36.0298C167.579 36.0994 167.229 36.1417 166.816 36.1566C166.051 36.1864 165.38 36.0845 164.803 35.8509C164.231 35.6172 163.786 35.2543 163.468 34.7621C163.15 34.2699 162.993 33.6484 162.998 32.8977V21.8011Z" fill="white"/>
<mask id="mask0_576_4818" style="mask-type:alpha" maskUnits="userSpaceOnUse" x="174" y="16" width="24" height="25">
<rect x="174" y="16.5" width="24" height="24" fill="#D9D9D9"/>
</mask>
<g mask="url(#mask0_576_4818)">
<path d="M183.551 31.65L192.026 23.175C192.226 22.975 192.463 22.875 192.738 22.875C193.013 22.875 193.251 22.975 193.451 23.175C193.651 23.375 193.751 23.6125 193.751 23.8875C193.751 24.1625 193.651 24.4 193.451 24.6L184.251 33.8C184.051 34 183.817 34.1 183.551 34.1C183.284 34.1 183.051 34 182.851 33.8L178.551 29.5C178.351 29.3 178.255 29.0625 178.263 28.7875C178.271 28.5125 178.376 28.275 178.576 28.075C178.776 27.875 179.013 27.775 179.288 27.775C179.563 27.775 179.801 27.875 180.001 28.075L183.551 31.65Z" fill="white"/>
</g>
</svg>
