<svg width="32" height="32" viewBox="0 0 32 32" fill="none" xmlns="http://www.w3.org/2000/svg">
<g clip-path="url(#clip0_426759_216)">
<path d="M23.5685 19.1666L8.43151 19.1666C8.18446 19.1666 7.94752 19.0678 7.77283 18.8918C7.59814 18.7159 7.5 18.4772 7.5 18.2284C7.5 17.9795 7.59814 17.7409 7.77283 17.5649C7.94752 17.389 8.18446 17.2901 8.43151 17.2901L23.5685 17.2901C23.8155 17.2901 24.0525 17.389 24.2272 17.5649C24.4019 17.7409 24.5 17.9795 24.5 18.2284C24.5 18.4772 24.4019 18.7159 24.2272 18.8918C24.0525 19.0678 23.8155 19.1666 23.5685 19.1666Z" fill="#FFA800"/>
<path d="M23.5685 14.7099L8.43151 14.7099C8.18446 14.7099 7.94752 14.611 7.77283 14.435C7.59814 14.2591 7.5 14.0204 7.5 13.7716C7.5 13.5227 7.59814 13.2841 7.77283 13.1081C7.94752 12.9322 8.18446 12.8333 8.43151 12.8333L23.5685 12.8333C23.8155 12.8333 24.0525 12.9322 24.2272 13.1081C24.4019 13.2841 24.5 13.5227 24.5 13.7716C24.5 14.0204 24.4019 14.2591 24.2272 14.435C24.0525 14.611 23.8155 14.7099 23.5685 14.7099Z" fill="#FFA800"/>
</g>
<defs>
<clipPath id="clip0_426759_216">
<rect width="17" height="6.33333" fill="#ff8a00" transform="translate(7.5 12.8333)"/>
</clipPath>
</defs>
</svg>
