<svg width="32" height="32" viewBox="0 0 32 32" fill="none" xmlns="http://www.w3.org/2000/svg">
<g clip-path="url(#clip0_426759_130)">
<path d="M16 14.7549C16.1994 14.7545 16.3937 14.8165 16.5543 14.9315L24.1228 20.3655C24.2212 20.4362 24.3044 20.5251 24.3675 20.6272C24.4307 20.7292 24.4725 20.8423 24.4907 20.96C24.5273 21.1978 24.4654 21.44 24.3184 21.6334C24.1714 21.8267 23.9514 21.9554 23.7068 21.9911C23.4623 22.0267 23.2131 21.9665 23.0143 21.8236L16 16.7926L8.98577 21.8236C8.8873 21.8943 8.77545 21.9455 8.65662 21.9743C8.53779 22.003 8.4143 22.0087 8.2932 21.9911C8.1721 21.9734 8.05577 21.9327 7.95084 21.8714C7.84592 21.81 7.75445 21.7291 7.68166 21.6334C7.60888 21.5376 7.5562 21.4289 7.52664 21.3134C7.49708 21.1978 7.49122 21.0778 7.50938 20.96C7.52754 20.8423 7.56938 20.7292 7.63251 20.6272C7.69563 20.5251 7.77881 20.4362 7.87728 20.3654L15.4458 14.9315C15.6063 14.8165 15.8006 14.7545 16 14.7549Z" fill="#FF3D00"/>
<path d="M16 10C16.1994 9.99967 16.3937 10.0616 16.5543 10.1766L24.1228 15.6106C24.3216 15.7535 24.454 15.9674 24.4907 16.2051C24.5273 16.4429 24.4654 16.6851 24.3184 16.8785C24.1714 17.0718 23.9514 17.2005 23.7068 17.2362C23.4623 17.2718 23.2131 17.2116 23.0143 17.0687L16 12.0377L8.98577 17.0687C8.78689 17.2116 8.53777 17.2718 8.2932 17.2362C8.04863 17.2005 7.82866 17.0718 7.68166 16.8785C7.53467 16.6851 7.47269 16.4429 7.50938 16.2051C7.54606 15.9674 7.6784 15.7535 7.87728 15.6106L15.4458 10.1766C15.6063 10.0616 15.8006 9.99967 16 10Z" fill="#FF3D00"/>
</g>
<defs>
<clipPath id="clip0_426759_130">
<rect width="17" height="12" fill="white" transform="translate(24.5 22) rotate(-180)"/>
</clipPath>
</defs>
</svg>
