<svg width="32" height="32" viewBox="0 0 32 32" fill="none" xmlns="http://www.w3.org/2000/svg">
<g clip-path="url(#clip0_426759_277)">
<path d="M16 17.2451C15.8006 17.2455 15.6063 17.1835 15.4457 17.0685L7.87724 11.6345C7.77877 11.5638 7.6956 11.4749 7.63247 11.3728C7.56935 11.2708 7.52751 11.1577 7.50934 11.04C7.47266 10.8022 7.53463 10.56 7.68163 10.3666C7.82862 10.1733 8.0486 10.0446 8.29317 10.0089C8.53773 9.97327 8.78686 10.0335 8.98574 10.1764L16 15.2074L23.0142 10.1764C23.1127 10.1057 23.2245 10.0545 23.3434 10.0257C23.4622 9.99698 23.5857 9.99128 23.7068 10.0089C23.8279 10.0266 23.9442 10.0673 24.0492 10.1286C24.1541 10.19 24.2456 10.2709 24.3183 10.3666C24.3911 10.4624 24.4438 10.5711 24.4734 10.6866C24.5029 10.8022 24.5088 10.9222 24.4906 11.04C24.4725 11.1577 24.4306 11.2708 24.3675 11.3728C24.3044 11.4749 24.2212 11.5638 24.1227 11.6346L16.5542 17.0685C16.3937 17.1835 16.1994 17.2455 16 17.2451Z" fill="#7AE229"/>
<path d="M16 22C15.8006 22.0003 15.6063 21.9384 15.4457 21.8234L7.87724 16.3894C7.67837 16.2465 7.54603 16.0326 7.50934 15.7949C7.47266 15.5571 7.53463 15.3149 7.68163 15.1215C7.82862 14.9282 8.0486 14.7995 8.29317 14.7638C8.53773 14.7282 8.78686 14.7884 8.98574 14.9313L16 19.9623L23.0142 14.9313C23.2131 14.7884 23.4622 14.7282 23.7068 14.7638C23.9514 14.7995 24.1713 14.9282 24.3183 15.1215C24.4653 15.3149 24.5273 15.5571 24.4906 15.7949C24.4539 16.0326 24.3216 16.2465 24.1227 16.3894L16.5542 21.8234C16.3937 21.9384 16.1994 22.0003 16 22Z" fill="#7AE229"/>
</g>
<defs>
<clipPath id="clip0_426759_277">
<rect width="17" height="12" fill="#7ae229" transform="translate(7.5 10)"/>
</clipPath>
</defs>
</svg>
